# xmcd
#
# Track frame offsets:
# 150
# 20120
# 32249
# 56460
# 85167
# 106283
# 127579
# 148637
# 163513
# 187549
# 203323
#
# Disc length: 2916 seconds
#
# Revision: 0
# Processed by: cddbd v1.4PL0 Copyright (c) Steve Scherf et al.
# Submitted via: Axialis_AX_CDPlayer 2.6
#
DISCID=7e0b620b
DTITLE=Dave Kelly - Resting My Bones
DYEAR=1900
DGENRE=
TTITLE0=Lovey Dovey
TTITLE1=If It Fits
TTITLE2=Dock of the Bay
TTITLE3=Life After Love
TTITLE4=Watching the Fire
TTITLE5=World in Motion
TTITLE6=City of New Orleans
TTITLE7=My Old Friend the Blues
TTITLE8=Velocity and Love
TTITLE9=If I Were a Carpenter
TTITLE10=Longing For You, Baby
EXTD=
EXTT0=
EXTT1=
EXTT2=
EXTT3=
EXTT4=
EXTT5=
EXTT6=
EXTT7=
EXTT8=
EXTT9=
EXTT10=
PLAYORDER=
